<svg xmlns="http://www.w3.org/2000/svg" viewBox="0 0 32 32" width="32" height="32">
  <defs>
    <linearGradient id="cloudGradient" x1="0%" y1="0%" x2="100%" y2="100%">
      <stop offset="0%" style="stop-color:#667eea;stop-opacity:1" />
      <stop offset="50%" style="stop-color:#764ba2;stop-opacity:1" />
      <stop offset="100%" style="stop-color:#a8edea;stop-opacity:1" />
    </linearGradient>
    <filter id="shadow" x="-50%" y="-50%" width="200%" height="200%">
      <feDropShadow dx="1" dy="1" stdDeviation="1" flood-color="#000" flood-opacity="0.3"/>
    </filter>
  </defs>
  
  <!-- Fondo circular -->
  <circle cx="16" cy="16" r="15" fill="url(#cloudGradient)" stroke="#ffffff" stroke-width="1" filter="url(#shadow)"/>
  
  <!-- Nube principal -->
  <path d="M8 18 C6 18, 5 16, 6 14 C6 12, 8 11, 10 11 C11 9, 13 8, 15 9 C17 8, 19 9, 20 11 C22 11, 24 12, 24 14 C25 16, 24 18, 22 18 Z" 
        fill="#ffffff" 
        stroke="none" 
        opacity="0.95"/>
  
  <!-- Detalles de la nube (burbujas más pequeñas) -->
  <circle cx="12" cy="15" r="1.5" fill="#ffffff" opacity="0.8"/>
  <circle cx="18" cy="14" r="1" fill="#ffffff" opacity="0.7"/>
  <circle cx="15" cy="17" r="0.8" fill="#ffffff" opacity="0.6"/>
  
  <!-- Puntos de conectividad (simbolizando conexiones web) -->
  <circle cx="10" cy="20" r="0.5" fill="#ffffff" opacity="0.8"/>
  <circle cx="16" cy="21" r="0.5" fill="#ffffff" opacity="0.8"/>
  <circle cx="22" cy="20" r="0.5" fill="#ffffff" opacity="0.8"/>
  
  <!-- Líneas de conexión sutiles -->
  <line x1="10" y1="20" x2="16" y2="21" stroke="#ffffff" stroke-width="0.5" opacity="0.5"/>
  <line x1="16" y1="21" x2="22" y2="20" stroke="#ffffff" stroke-width="0.5" opacity="0.5"/>
</svg>
